<?xml version="1.0" encoding="UTF-8"?>
<svg version="1.1" xmlns="http://www.w3.org/2000/svg" width="256" height="256">
<path d="M0 0 C2.13126169 -0.00015527 4.26252366 -0.00164879 6.39378357 -0.00440979 C10.84264738 -0.00578816 15.29118661 0.00667104 19.73999023 0.02954102 C25.41772814 0.0579409 31.09492822 0.05517585 36.77270603 0.0424509 C41.16786728 0.03546802 45.56290608 0.04331249 49.95805168 0.05570793 C52.05064358 0.06019586 54.14324875 0.06058272 56.23584175 0.05664253 C77.20084357 0.03563743 77.20084357 0.03563743 85.99609375 3.49609375 C86.87169449 3.83375259 87.74729523 4.17141144 88.64942932 4.51930237 C98.04640514 8.43076277 104.9789615 16.57895132 108.87109375 25.74609375 C110.90591241 30.94768317 112.12294792 35.21734175 112.10961914 40.81542969 C112.10954361 41.87622742 112.10946808 42.93702515 112.10939026 44.02996826 C112.10422897 45.16863342 112.09906769 46.30729858 112.09375 47.48046875 C112.09162758 49.23656464 112.09162758 49.23656464 112.08946228 51.02813721 C112.08386465 54.76748204 112.07131255 58.50676701 112.05859375 62.24609375 C112.05357845 64.78124914 112.04901559 67.31640546 112.04492188 69.8515625 C112.03389599 76.06642668 112.01716019 82.28125594 111.99609375 88.49609375 C113.26090576 88.48562012 114.52571777 88.47514648 115.82885742 88.46435547 C120.57947899 88.42780148 125.33008845 88.4050661 130.08081055 88.38623047 C132.1260793 88.37625276 134.17133409 88.3626658 136.21655273 88.34521484 C173.92511445 88.03182176 173.92511445 88.03182176 187.8046875 101.1796875 C191.71756154 105.31575578 194.50754739 109.08542909 196.68359375 114.37109375 C197.09996094 115.35851562 197.51632813 116.3459375 197.9453125 117.36328125 C200.03143101 123.58286134 200.14507246 129.81491799 200.14135742 136.30200195 C200.14471603 137.15502899 200.14807465 138.00805603 200.15153503 138.88693237 C200.16098749 141.69026164 200.16298528 144.49353081 200.1640625 147.296875 C200.16727909 149.25831628 200.17064346 151.21975733 200.17414856 153.18119812 C200.18012559 157.28738969 200.18198993 161.39356025 200.18139648 165.49975586 C200.18129495 170.74155585 200.19494421 175.98322012 200.21216869 181.22498798 C200.22332898 185.27522898 200.22531445 189.32543758 200.22478676 193.37569237 C200.22596091 195.30723729 200.23035074 197.23878322 200.23811913 199.17031288 C200.29701408 215.32636438 200.03295259 230.48241847 188.12109375 242.93359375 C178.65302439 251.57679343 168.67485601 254.9727644 155.91577148 254.88427734 C154.96316437 254.8895343 154.01055725 254.89479126 153.02908325 254.90020752 C149.9124461 254.91330059 146.79632891 254.90470817 143.6796875 254.89453125 C141.49593509 254.89655489 139.31218334 254.89946874 137.12843323 254.90322876 C132.56512988 254.9076375 128.0020034 254.90126718 123.4387207 254.88720703 C117.60605275 254.87010602 111.77379873 254.8799716 105.9411459 254.89792442 C101.43627331 254.90879276 96.931498 254.90530208 92.42662239 254.89754105 C90.27655042 254.895548 88.12646946 254.89796664 85.976408 254.90497971 C82.96637623 254.91264557 79.95700443 254.90091853 76.94702148 254.88427734 C76.0693663 254.89035004 75.19171112 254.89642273 74.28746033 254.90267944 C63.51863208 254.79304382 53.55337244 250.75196072 45.69140625 243.31640625 C34.89558725 231.57150427 32.81822079 217.94796274 32.8984375 202.53125 C32.89985245 201.49794052 32.9012674 200.46463104 32.90272522 199.40000916 C32.90829536 196.11950715 32.92084234 192.83907492 32.93359375 189.55859375 C32.93861261 187.32617286 32.94317484 185.0937509 32.94726562 182.86132812 C32.958255 177.40622644 32.97496325 171.95116508 32.99609375 166.49609375 C32.35875305 166.5049762 31.72141235 166.51385864 31.0647583 166.52301025 C24.38034105 166.61208823 17.69609472 166.67207693 11.01123047 166.71582031 C8.52255393 166.73583042 6.03392377 166.76304718 3.54541016 166.79785156 C-0.04927069 166.84683719 -3.64332538 166.86916958 -7.23828125 166.88671875 C-8.88434357 166.91768646 -8.88434357 166.91768646 -10.56365967 166.94927979 C-23.20569242 166.95288239 -33.63731151 163.02058139 -43.00390625 154.49609375 C-55.0787647 141.36636849 -54.60799261 125.46844682 -54.53515625 108.73828125 C-54.53785634 106.54118682 -54.54174305 104.34409355 -54.54675293 102.14700317 C-54.55262111 97.56289184 -54.5441701 92.97909415 -54.52539062 88.39501953 C-54.50257597 82.54346764 -54.51575767 76.69264879 -54.53968048 70.84112358 C-54.55418799 66.31127475 -54.54951022 61.78159754 -54.53916931 57.25174332 C-54.53651712 55.09495073 -54.5397182 52.93814213 -54.54908752 50.78136826 C-54.6040087 34.59283732 -53.6802853 22.7090711 -42.00390625 10.49609375 C-30.30004121 -0.8420255 -15.19934557 -0.09059986 0 0 Z " fill="#FDE6D0" transform="translate(54.00390625,-0.49609375)"/>
<path d="M0 0 C2.13126169 -0.00015527 4.26252366 -0.00164879 6.39378357 -0.00440979 C10.84264738 -0.00578816 15.29118661 0.00667104 19.73999023 0.02954102 C25.41772814 0.0579409 31.09492822 0.05517585 36.77270603 0.0424509 C41.16786728 0.03546802 45.56290608 0.04331249 49.95805168 0.05570793 C52.05064358 0.06019586 54.14324875 0.06058272 56.23584175 0.05664253 C77.20084357 0.03563743 77.20084357 0.03563743 85.99609375 3.49609375 C86.87169449 3.83375259 87.74729523 4.17141144 88.64942932 4.51930237 C98.04640514 8.43076277 104.9789615 16.57895132 108.87109375 25.74609375 C110.90137368 30.93608085 112.12070863 35.2146011 112.12548828 40.79956055 C112.12864044 41.85713058 112.1317926 42.91470062 112.13504028 44.00431824 C112.13200394 45.7076104 112.13200394 45.7076104 112.12890625 47.4453125 C112.12986298 48.61367142 112.1308197 49.78203033 112.13180542 50.98579407 C112.13248558 53.45285089 112.13064275 55.91990951 112.12646484 58.38696289 C112.12109991 62.17923965 112.12642282 65.97139874 112.1328125 69.76367188 C112.13215197 72.15755235 112.13087134 74.55143274 112.12890625 76.9453125 C112.13093048 78.0869133 112.13295471 79.2285141 112.13504028 80.40470886 C112.13031204 81.9768792 112.13031204 81.9768792 112.12548828 83.58081055 C112.12469269 84.50806442 112.12389709 85.4353183 112.12307739 86.39067078 C111.99609375 88.49609375 111.99609375 88.49609375 110.99609375 89.49609375 C107.86655982 89.61967581 104.75577813 89.68234339 101.625 89.70703125 C99.66861186 89.73513037 97.71223178 89.76379498 95.75585938 89.79296875 C92.66870613 89.83401677 89.58169836 89.87089494 86.49438477 89.89746094 C83.51677058 89.92531379 80.53984362 89.97121818 77.5625 90.01953125 C76.20095543 90.02441055 76.20095543 90.02441055 74.81190491 90.02938843 C63.37765934 90.24539773 54.13908309 93.70226188 45.796875 101.5703125 C38.93585526 108.83715965 35.0872453 116.68494149 34.6796875 126.69921875 C34.63779297 127.67890625 34.59589844 128.65859375 34.55273438 129.66796875 C34.51341797 130.68375 34.47410156 131.69953125 34.43359375 132.74609375 C34.36881836 134.29296875 34.36881836 134.29296875 34.30273438 135.87109375 C34.19683693 138.41263245 34.09475932 140.95426571 33.99609375 143.49609375 C39.54679755 143.45174928 45.09638452 143.38171603 50.64648438 143.28857422 C52.53181029 143.26046878 54.41725174 143.23920269 56.30273438 143.22509766 C59.02403475 143.20352286 61.74396106 143.15680026 64.46484375 143.10546875 C65.29850464 143.10424011 66.13216553 143.10301147 66.99108887 143.10174561 C73.95935786 142.9300382 79.44125223 141.11816794 84.37109375 136.05859375 C87.00628943 131.90309287 88.22918754 128.33037905 88.41015625 123.4140625 C88.46816406 122.01704102 88.46816406 122.01704102 88.52734375 120.59179688 C88.55828125 119.63208984 88.58921875 118.67238281 88.62109375 117.68359375 C88.65976563 116.70455078 88.6984375 115.72550781 88.73828125 114.71679688 C88.83219746 112.31019395 88.91521939 109.90317024 88.99609375 107.49609375 C94.93609375 107.49609375 100.87609375 107.49609375 106.99609375 107.49609375 C107.90761982 137.60177434 107.90761982 137.60177434 96.99609375 149.49609375 C89.75149539 156.97043624 81.46080862 161.37121458 70.98828125 161.8125 C69.50521484 161.8753418 69.50521484 161.8753418 67.9921875 161.93945312 C66.96222656 161.97876953 65.93226562 162.01808594 64.87109375 162.05859375 C63.89527344 162.10177734 62.91945313 162.14496094 61.9140625 162.18945312 C52.58888631 162.56556458 43.35275795 162.49609375 33.99609375 162.49609375 C33.99609375 179.32609375 33.99609375 196.15609375 33.99609375 213.49609375 C33.66609375 213.49609375 33.33609375 213.49609375 32.99609375 213.49609375 C32.99609375 197.98609375 32.99609375 182.47609375 32.99609375 166.49609375 C29.309375 166.5425 25.62265625 166.58890625 21.82421875 166.63671875 C18.2199033 166.6679896 14.61560345 166.69223457 11.01123047 166.71582031 C8.52255393 166.73583042 6.03392377 166.76304718 3.54541016 166.79785156 C-0.04927069 166.84683719 -3.64332538 166.86916958 -7.23828125 166.88671875 C-8.88434357 166.91768646 -8.88434357 166.91768646 -10.56365967 166.94927979 C-23.20569242 166.95288239 -33.63731151 163.02058139 -43.00390625 154.49609375 C-55.0787647 141.36636849 -54.60799261 125.46844682 -54.53515625 108.73828125 C-54.53785634 106.54118682 -54.54174305 104.34409355 -54.54675293 102.14700317 C-54.55262111 97.56289184 -54.5441701 92.97909415 -54.52539062 88.39501953 C-54.50257597 82.54346764 -54.51575767 76.69264879 -54.53968048 70.84112358 C-54.55418799 66.31127475 -54.54951022 61.78159754 -54.53916931 57.25174332 C-54.53651712 55.09495073 -54.5397182 52.93814213 -54.54908752 50.78136826 C-54.6040087 34.59283732 -53.6802853 22.7090711 -42.00390625 10.49609375 C-30.30004121 -0.8420255 -15.19934557 -0.09059986 0 0 Z " fill="#D8EFF3" transform="translate(54.00390625,-0.49609375)"/>
<path d="M0 0 C1.92628482 -0.00742768 3.85256036 -0.01803834 5.77880859 -0.03204346 C23.87260791 -0.15217533 41.45016889 -0.25181079 55.29150391 12.85983276 C59.20437795 16.99590104 61.9943638 20.76557436 64.17041016 26.05123901 C64.58677734 27.03866089 65.00314453 28.02608276 65.43212891 29.04342651 C67.51824742 35.26300661 67.63188887 41.49506326 67.62817383 47.98214722 C67.63153244 48.83517426 67.63489105 49.68820129 67.63835144 50.56707764 C67.64780389 53.37040691 67.64980169 56.17367608 67.65087891 58.97702026 C67.65409549 60.93846155 67.65745986 62.89990259 67.66096497 64.86134338 C67.666942 68.96753495 67.66880634 73.07370551 67.66821289 77.17990112 C67.66811136 82.42170112 67.68176062 87.66336538 67.6989851 92.90513325 C67.71014539 96.95537424 67.71213086 101.00558284 67.71160316 105.05583763 C67.71277732 106.98738256 67.71716715 108.91892848 67.72493553 110.85045815 C67.78383049 127.00650965 67.51976899 142.16256373 55.60791016 154.61373901 C46.1398408 163.2569387 36.16167242 166.65290966 23.40258789 166.56442261 C22.44998077 166.56967957 21.49737366 166.57493652 20.51589966 166.58035278 C17.39926251 166.59344585 14.28314531 166.58485344 11.16650391 166.57467651 C8.9827515 166.57670015 6.79899975 166.579614 4.61524963 166.58337402 C0.05194629 166.58778276 -4.51118019 166.58141244 -9.07446289 166.56735229 C-14.90713084 166.55025128 -20.73938486 166.56011686 -26.5720377 166.57806969 C-31.07691029 166.58893802 -35.5816856 166.58544735 -40.0865612 166.57768631 C-42.23663317 166.57569327 -44.38671413 166.5781119 -46.53677559 166.58512497 C-49.54680736 166.59279083 -52.55617916 166.5810638 -55.56616211 166.56442261 C-56.44381729 166.5704953 -57.32147247 166.57656799 -58.22572327 166.58282471 C-68.99455151 166.47318909 -78.95981115 162.43210598 -86.82177734 154.99655151 C-96.79499062 144.14657223 -98.9932212 132.90917417 -98.81005859 118.51217651 C-98.80581375 117.23895538 -98.80156891 115.96573425 -98.79719543 114.65393066 C-98.78333899 111.30334806 -98.75648725 107.95340381 -98.7230835 104.60299683 C-98.69214388 101.1704351 -98.67863959 97.73780686 -98.66357422 94.30514526 C-98.6306406 87.5953141 -98.57892824 80.88586352 -98.51708984 74.17623901 C-92.57708984 74.17623901 -86.63708984 74.17623901 -80.51708984 74.17623901 C-80.50307129 76.51383301 -80.50307129 76.51383301 -80.48876953 78.89865112 C-80.44874774 84.70801859 -80.38295395 90.5168633 -80.30957031 96.32589722 C-80.28143148 98.83494323 -80.2601819 101.34407672 -80.24609375 103.85324097 C-80.22456687 107.47047482 -80.17786344 111.0866647 -80.12646484 114.70358276 C-80.12523621 115.8164415 -80.12400757 116.92930023 -80.1227417 118.07588196 C-79.98739971 125.35424672 -79.12502994 132.12758416 -74.10565186 137.76008606 C-68.41597317 142.80696508 -63.11447437 143.47492899 -55.75463867 143.46676636 C-54.88239655 143.47348358 -54.01015442 143.48020081 -53.11148071 143.48712158 C-50.23230259 143.50609381 -47.35335782 143.51002584 -44.47412109 143.51217651 C-42.46498012 143.51860655 -40.45584007 143.52533507 -38.44670105 143.53234863 C-34.23438346 143.5443206 -30.02214786 143.54802969 -25.80981445 143.54684448 C-20.43103189 143.54664166 -15.05277988 143.57390609 -9.67412281 143.6083889 C-5.52263511 143.63071012 -1.37127383 143.63468037 2.78026772 143.63362503 C4.76206599 143.63597458 6.74386809 143.64476141 8.72560692 143.66028976 C23.23964138 144.23585162 23.23964138 144.23585162 36.48291016 139.17623901 C42.80711832 132.61339181 43.63106591 127.34350699 43.65991211 118.40377808 C43.66976891 117.07618469 43.66976891 117.07618469 43.67982483 115.72177124 C43.69952194 112.79513459 43.71121245 109.86854917 43.72119141 106.94186401 C43.72526693 105.94052177 43.72934246 104.93917953 43.73354149 103.90749359 C43.75438692 98.60742907 43.76869526 93.30739032 43.77807617 88.0072937 C43.78913746 82.54200292 43.82353872 77.07711962 43.86324787 71.61197281 C43.88943075 67.40139016 43.8977695 63.19090439 43.90135765 58.9802475 C43.90621924 56.96608478 43.91782099 54.95192626 43.93639565 52.93784332 C43.96082252 50.11366235 43.95981556 47.29053301 43.95288086 44.46627808 C43.96569092 43.64105652 43.97850098 42.81583496 43.99169922 41.96560669 C43.93579882 35.69179025 42.40893312 30.34605787 38.07092762 25.64661026 C32.78280344 20.98295325 28.22417641 19.9300877 21.3059082 19.85739136 C20.60292099 19.84734573 19.89993378 19.83730011 19.17564392 19.82695007 C16.86531346 19.79620093 14.55509845 19.77910629 12.24462891 19.76217651 C10.63750725 19.74345818 9.03039535 19.72388427 7.42329407 19.70349121 C3.20329551 19.65223421 -1.0167349 19.61257418 -5.23687744 19.5753479 C-9.54715815 19.53526784 -13.85730715 19.48419378 -18.16748047 19.43405151 C-26.61726017 19.33736841 -35.06710524 19.2529394 -43.51708984 19.17623901 C-43.49614258 19.77049683 -43.47519531 20.36475464 -43.45361328 20.97702026 C-43.3696713 23.70991606 -43.31818703 26.44253959 -43.26708984 29.17623901 C-43.21681641 30.57809448 -43.21681641 30.57809448 -43.16552734 32.00827026 C-43.06879963 38.92430151 -44.10292226 44.49599409 -48.92993164 49.69918823 C-54.9031463 54.99617186 -60.14210869 55.46410162 -67.75537109 55.37155151 C-69.07652168 55.36730667 -69.07652168 55.36730667 -70.42436218 55.36297607 C-73.22624529 55.35181734 -76.027804 55.32672072 -78.82958984 55.30123901 C-80.73388209 55.29120364 -82.63817936 55.28207877 -84.54248047 55.27389526 C-89.20080782 55.25189211 -93.8588939 55.21739195 -98.51708984 55.17623901 C-99.51646906 26.12889776 -99.51646906 26.12889776 -88.51708984 14.17623901 C-79.12451612 4.51783773 -70.32155067 1.14084814 -56.98583984 0.85983276 C-56.13792374 0.83891571 -55.29000763 0.81799866 -54.41639709 0.79644775 C-51.61672428 0.72981787 -48.81696991 0.67096401 -46.01708984 0.61373901 C-45.05600311 0.59322479 -44.09491638 0.57271057 -43.10470581 0.55157471 C-28.73786565 0.25003983 -14.3699873 0.0505757 0 0 Z " fill="#EC6020" transform="translate(186.51708984375,87.82376098632813)"/>
<path d="M0 0 C2.13126169 -0.00015527 4.26252366 -0.00164879 6.39378357 -0.00440979 C10.84264738 -0.00578816 15.29118661 0.00667104 19.73999023 0.02954102 C25.41772814 0.0579409 31.09492822 0.05517585 36.77270603 0.0424509 C41.16786728 0.03546802 45.56290608 0.04331249 49.95805168 0.05570793 C52.05064358 0.06019586 54.14324875 0.06058272 56.23584175 0.05664253 C77.20084357 0.03563743 77.20084357 0.03563743 85.99609375 3.49609375 C86.87169449 3.83375259 87.74729523 4.17141144 88.64942932 4.51930237 C98.04640514 8.43076277 104.9789615 16.57895132 108.87109375 25.74609375 C110.90137368 30.93608085 112.12070863 35.2146011 112.12548828 40.79956055 C112.12864044 41.85713058 112.1317926 42.91470062 112.13504028 44.00431824 C112.13200394 45.7076104 112.13200394 45.7076104 112.12890625 47.4453125 C112.12986298 48.61367142 112.1308197 49.78203033 112.13180542 50.98579407 C112.13248558 53.45285089 112.13064275 55.91990951 112.12646484 58.38696289 C112.12109991 62.17923965 112.12642282 65.97139874 112.1328125 69.76367188 C112.13215197 72.15755235 112.13087134 74.55143274 112.12890625 76.9453125 C112.13093048 78.0869133 112.13295471 79.2285141 112.13504028 80.40470886 C112.13031204 81.9768792 112.13031204 81.9768792 112.12548828 83.58081055 C112.12469269 84.50806442 112.12389709 85.4353183 112.12307739 86.39067078 C111.99609375 88.49609375 111.99609375 88.49609375 110.99609375 89.49609375 C109.36136493 89.58309717 107.7229532 89.60310438 106.0859375 89.59375 C105.09658203 89.59052734 104.10722656 89.58730469 103.08789062 89.58398438 C102.04697266 89.57560547 101.00605469 89.56722656 99.93359375 89.55859375 C98.88880859 89.55408203 97.84402344 89.54957031 96.76757812 89.54492188 C94.17702715 89.53309288 91.58658816 89.51661064 88.99609375 89.49609375 C88.99688934 88.81450699 88.99768494 88.13292023 88.99850464 87.43067932 C89.00095073 80.30822862 88.96159359 73.18686192 88.8984375 66.06469727 C88.87700297 63.40964626 88.87270062 60.75614744 88.87597656 58.10083008 C88.87884517 54.27481929 88.8434045 50.45074215 88.80078125 46.625 C88.81442215 44.85727989 88.81442215 44.85727989 88.82833862 43.05384827 C88.69452177 35.39119771 87.56176935 30.00491993 81.99609375 24.49609375 C73.61332171 17.26207694 61.75894239 18.78950589 51.39453125 18.8671875 C49.38774487 18.86635765 47.38095856 18.86389391 45.37417603 18.85987854 C41.18316006 18.85703037 36.99268143 18.87162835 32.80175781 18.89916992 C27.44413589 18.9332949 22.08747122 18.92721028 16.72980309 18.90850735 C12.59121797 18.89791462 8.4528537 18.90689512 4.31428909 18.92189217 C2.33923626 18.92705476 0.36416019 18.92661566 -1.61088943 18.92034721 C-4.37472021 18.91486569 -7.13720209 18.93536198 -9.90087891 18.96264648 C-11.11054573 18.95285767 -11.11054573 18.95285767 -12.34465027 18.94287109 C-19.37650834 19.06025841 -24.41199893 21.36496996 -29.81640625 25.80859375 C-34.65480707 31.75291475 -35.4490525 37.09263536 -35.40795898 44.50146484 C-35.41825386 45.81267555 -35.41825386 45.81267555 -35.42875671 47.15037537 C-35.44697207 50.02359527 -35.44319432 52.89626631 -35.4375 55.76953125 C-35.44206471 57.77821021 -35.44737114 59.7868876 -35.4533844 61.79556274 C-35.46230548 66.00016636 -35.45990421 70.20457995 -35.44995117 74.40917969 C-35.43846988 79.78130682 -35.45866546 85.15277581 -35.48786831 90.52481651 C-35.5062693 94.67198818 -35.50592995 98.81900332 -35.50023079 102.9662056 C-35.50007801 104.94603014 -35.5060859 106.9258656 -35.51852226 108.90565109 C-35.53350219 111.68149081 -35.52270372 114.45612986 -35.50561523 117.23193359 C-35.5152832 118.039496 -35.52495117 118.84705841 -35.53491211 119.67909241 C-35.44864949 126.41530636 -33.595401 132.47815049 -29.15234375 137.65234375 C-28.56710938 138.09578125 -27.981875 138.53921875 -27.37890625 138.99609375 C-26.78851562 139.46015625 -26.198125 139.92421875 -25.58984375 140.40234375 C-21.64268426 143.12452271 -17.72426735 142.65890569 -13.09130859 142.6730957 C-12.16752411 142.6796669 -11.24373962 142.6862381 -10.29196167 142.69300842 C-7.22458825 142.71277128 -4.15726393 142.72441255 -1.08984375 142.734375 C0.4811162 142.74048829 0.4811162 142.74048829 2.08381271 142.74672508 C7.63025466 142.76760159 13.17667177 142.78189474 18.72314453 142.79125977 C24.44631572 142.80230914 30.16909648 142.83668775 35.8921299 142.87643147 C40.29658722 142.90261268 44.7009519 142.91095311 49.10548019 142.91454124 C51.2145386 142.91940568 53.32359291 142.93101554 55.43257523 142.94957924 C58.39107115 142.97399532 61.34856252 142.97300061 64.30712891 142.96606445 C65.17289551 142.97887451 66.03866211 142.99168457 66.93066406 143.00488281 C72.74931939 142.95536035 77.12542026 141.75006671 81.99609375 138.49609375 C86.31931153 134.05910708 88.18349343 129.57173567 88.41015625 123.4140625 C88.46816406 122.01704102 88.46816406 122.01704102 88.52734375 120.59179688 C88.55828125 119.63208984 88.58921875 118.67238281 88.62109375 117.68359375 C88.65976563 116.70455078 88.6984375 115.72550781 88.73828125 114.71679688 C88.83219746 112.31019395 88.91521939 109.90317024 88.99609375 107.49609375 C94.93609375 107.49609375 100.87609375 107.49609375 106.99609375 107.49609375 C107.90761982 137.60177434 107.90761982 137.60177434 96.99609375 149.49609375 C89.75149539 156.97043624 81.46080862 161.37121458 70.98828125 161.8125 C69.50521484 161.8753418 69.50521484 161.8753418 67.9921875 161.93945312 C66.96222656 161.97876953 65.93226562 162.01808594 64.87109375 162.05859375 C63.89527344 162.10177734 62.91945313 162.14496094 61.9140625 162.18945312 C52.58888631 162.56556458 43.35275795 162.49609375 33.99609375 162.49609375 C33.99609375 179.32609375 33.99609375 196.15609375 33.99609375 213.49609375 C33.66609375 213.49609375 33.33609375 213.49609375 32.99609375 213.49609375 C32.99609375 197.98609375 32.99609375 182.47609375 32.99609375 166.49609375 C29.309375 166.5425 25.62265625 166.58890625 21.82421875 166.63671875 C18.2199033 166.6679896 14.61560345 166.69223457 11.01123047 166.71582031 C8.52255393 166.73583042 6.03392377 166.76304718 3.54541016 166.79785156 C-0.04927069 166.84683719 -3.64332538 166.86916958 -7.23828125 166.88671875 C-8.88434357 166.91768646 -8.88434357 166.91768646 -10.56365967 166.94927979 C-23.20569242 166.95288239 -33.63731151 163.02058139 -43.00390625 154.49609375 C-55.0787647 141.36636849 -54.60799261 125.46844682 -54.53515625 108.73828125 C-54.53785634 106.54118682 -54.54174305 104.34409355 -54.54675293 102.14700317 C-54.55262111 97.56289184 -54.5441701 92.97909415 -54.52539062 88.39501953 C-54.50257597 82.54346764 -54.51575767 76.69264879 -54.53968048 70.84112358 C-54.55418799 66.31127475 -54.54951022 61.78159754 -54.53916931 57.25174332 C-54.53651712 55.09495073 -54.5397182 52.93814213 -54.54908752 50.78136826 C-54.6040087 34.59283732 -53.6802853 22.7090711 -42.00390625 10.49609375 C-30.30004121 -0.8420255 -15.19934557 -0.09059986 0 0 Z " fill="#1A88C6" transform="translate(54.00390625,-0.49609375)"/>
<path d="M0 0 C18.48 0 36.96 0 56 0 C56 5.94 56 11.88 56 18 C44.78 18 33.56 18 22 18 C22 20.64 22 23.28 22 26 C32.23 26 42.46 26 53 26 C53 31.94 53 37.88 53 44 C42.77 44 32.54 44 22 44 C22 46.64 22 49.28 22 52 C31.24 52 40.48 52 50 52 C48.02 54.31 46.04 56.62 44 59 C42.02 62.63 40.04 66.26 38 70 C25.46 70 12.92 70 0 70 C0 46.9 0 23.8 0 0 Z " fill="#1589C9" transform="translate(52,46)"/>
<path d="M0 0 C0.91644287 0.00523682 1.83288574 0.01047363 2.77709961 0.01586914 C4.26113281 0.02070313 4.26113281 0.02070313 5.77514648 0.02563477 C6.81606445 0.03401367 7.85698242 0.04239258 8.92944336 0.05102539 C10.49662109 0.05779297 10.49662109 0.05779297 12.09545898 0.06469727 C14.68600996 0.07652627 17.27644895 0.0930085 19.86694336 0.11352539 C17.52594001 7.36778091 14.85756926 14.45919886 12.08569336 21.55883789 C11.63093628 22.72808807 11.1761792 23.89733826 10.7076416 25.10202026 C9.50703727 28.18725405 8.30443407 31.27169905 7.10101318 34.35583496 C6.12301104 36.86414576 5.14752231 39.37343057 4.17208099 41.88273811 C2.99876604 44.90028334 1.82343966 47.91704445 0.64819336 50.93383789 C0.21373901 52.05065948 -0.22071533 53.16748108 -0.66833496 54.31814575 C-1.07886108 55.36968842 -1.48938721 56.42123108 -1.91235352 57.50463867 C-2.26970581 58.42125275 -2.62705811 59.33786682 -2.99523926 60.28225708 C-4.32105774 63.58133469 -5.73246951 66.84548876 -7.13305664 70.11352539 C-14.06305664 70.11352539 -20.99305664 70.11352539 -28.13305664 70.11352539 C-33.45454442 57.17174536 -38.77508044 44.22850383 -43.82055664 31.17602539 C-44.15893555 30.31404541 -44.49731445 29.45206543 -44.84594727 28.56396484 C-45.15081055 27.76692139 -45.45567383 26.96987793 -45.76977539 26.14868164 C-46.16749146 25.11819702 -46.16749146 25.11819702 -46.57324219 24.06689453 C-47.13305664 22.11352539 -47.13305664 22.11352539 -47.13305664 18.11352539 C-45.41040039 16.69165039 -45.41040039 16.69165039 -43.07055664 15.36352539 C-38.12433174 12.31126635 -34.71318476 8.64912179 -31.13305664 4.11352539 C-29.00871924 7.30003149 -27.79841117 10.47089164 -26.53149414 14.04711914 C-26.29016754 14.721465 -26.04884094 15.39581085 -25.80020142 16.09059143 C-25.29217157 17.51455521 -24.78630954 18.93929402 -24.2824707 20.36474609 C-23.51115244 22.54228552 -22.72877492 24.71563288 -21.94555664 26.88891602 C-21.45269058 28.27474258 -20.96048101 29.66080284 -20.46899414 31.04711914 C-20.23465668 31.69514999 -20.00031921 32.34318085 -19.75888062 33.010849 C-18.60988485 36.29304064 -18.13305664 38.57579782 -18.13305664 42.11352539 C-17.47305664 42.11352539 -16.81305664 42.11352539 -16.13305664 42.11352539 C-15.96870117 40.63118408 -15.96870117 40.63118408 -15.80102539 39.11889648 C-15.19260701 34.88691132 -13.89264325 31.0379786 -12.44555664 27.02758789 C-12.18299072 26.28519867 -11.9204248 25.54280945 -11.64990234 24.77792358 C-11.0982269 23.22218653 -10.54341147 21.66755967 -9.9855957 20.11401367 C-9.12894962 17.72708172 -8.28259365 15.33668634 -7.43774414 12.94555664 C-6.89927515 11.43102258 -6.36023324 9.91669206 -5.82055664 8.40258789 C-5.56636963 7.68600006 -5.31218262 6.96941223 -5.05029297 6.23110962 C-2.86143073 0.15229087 -2.86143073 0.15229087 0 0 Z " fill="#ED6221" transform="translate(186.133056640625,138.886474609375)"/>
<path d="M0 0 C6.97174311 1.37149045 13.37245356 3.46038463 20 6 C20.80179688 6.27457031 21.60359375 6.54914062 22.4296875 6.83203125 C47.63596386 15.88149768 68.81089053 38.30864522 80.34594727 61.99365234 C88.50926385 79.54940294 88.50926385 79.54940294 88 88 C86.26171875 88.75390625 86.26171875 88.75390625 84 89 C81.95703125 87.33984375 81.95703125 87.33984375 79.8125 84.9375 C70.11215823 74.72912069 60.61764867 71.19065517 46.8203125 69.625 C43.71541888 68.93693493 42.86146767 68.50773389 41 66 C39.88185322 64.24252355 38.82304489 62.44647597 37.8125 60.625 C37.28269531 59.68914062 36.75289062 58.75328125 36.20703125 57.7890625 C35 55 35 55 35 50 C38.96 50 42.92 50 47 50 C46.34 48.68 45.68 47.36 45 46 C44.34 46 43.68 46 43 46 C43 45.34 43 44.68 43 44 C42.43925781 43.75378906 41.87851563 43.50757813 41.30078125 43.25390625 C38.58899175 41.77600399 36.516855 39.96629307 34.1875 37.9375 C29.09470274 33.65100488 23.77377153 30.33122776 17.86401367 27.27124023 C15.9921875 26.23828125 15.9921875 26.23828125 13 24 C12.1953125 20.79296875 12.1953125 20.79296875 12 18 C11.34 17.67 10.68 17.34 10 17 C8.59867045 15.26624871 7.25166631 13.4882179 5.9375 11.6875 C5.22464844 10.72199219 4.51179687 9.75648437 3.77734375 8.76171875 C2.21045861 6.32702029 1.49826843 4.78661234 1 2 C0.67 1.34 0.34 0.68 0 0 Z " fill="#2BA2D9" transform="translate(161,8)"/>
<path d="M0 0 C4.08529578 1.34515837 6.25466545 3.01703541 9.125 6.1875 C15.65022887 12.91901731 23.42298457 18.9477767 33 20 C34.33224609 20.00580078 34.33224609 20.00580078 35.69140625 20.01171875 C43.02271829 20.14138821 43.02271829 20.14138821 46.1875 22.921875 C53.19893451 31.861454 53.19893451 31.861454 52.75 36.6875 C52.5025 37.450625 52.255 38.21375 52 39 C49.59454362 40.20272819 48.05003047 40.10071472 45.375 40.0625 C44.14910156 40.04896484 44.14910156 40.04896484 42.8984375 40.03515625 C42.27195313 40.02355469 41.64546875 40.01195312 41 40 C48.86806853 50.36989677 61.12500288 58.49818987 72.6953125 64.3671875 C75.77249459 66.54729278 76.84061707 68.88427047 78.5 72.25 C81.02103901 77.18726458 83.62934356 81.60793252 87 86 C86.01 87.98 86.01 87.98 85 90 C56.07518303 84.97712759 31.86599283 64.84995759 15.33984375 41.5078125 C9.43044149 32.84519343 6.14828204 23.69177071 2.8125 13.8125 C2.43158203 12.70712891 2.05066406 11.60175781 1.65820312 10.46289062 C1.30306641 9.40908203 0.94792969 8.35527344 0.58203125 7.26953125 C0.25436768 6.30635986 -0.0732959 5.34318848 -0.41088867 4.35083008 C-1 2 -1 2 0 0 Z " fill="#EE811D" transform="translate(4,156)"/>
<path d="M0 0 C6.95177506 2.36213483 11.86461901 7.4598985 15.62109375 13.6875 C21.57705471 26.12962616 21.29849438 38.599591 21.265625 52.09375 C21.26697459 54.05090381 21.26891757 56.00805729 21.27142334 57.96520996 C21.27436075 62.05349948 21.27012162 66.14170121 21.26074219 70.22998047 C21.24934854 75.44816834 21.25591544 80.66615041 21.26788712 85.88433075 C21.27514315 89.92170743 21.27280064 93.95903599 21.26763153 97.99641418 C21.26630538 99.91958135 21.26790616 101.842753 21.27259064 103.76591492 C21.30324242 119.88346164 21.00411703 135.02054893 9.125 147.4375 C-0.34306936 156.08069968 -10.32123774 159.47667065 -23.08032227 159.38818359 C-24.03292938 159.39344055 -24.9855365 159.39869751 -25.9670105 159.40411377 C-29.08364765 159.41720684 -32.19976484 159.40861442 -35.31640625 159.3984375 C-37.50015866 159.40046114 -39.68391041 159.40337499 -41.86766052 159.40713501 C-46.43096387 159.41154375 -50.99409035 159.40517343 -55.55737305 159.39111328 C-61.390041 159.37401227 -67.22229502 159.38387785 -73.05494785 159.40183067 C-77.55982044 159.41269901 -82.06459575 159.40920833 -86.56947136 159.4014473 C-88.71954333 159.39945425 -90.86962429 159.40187289 -93.01968575 159.40888596 C-96.02971752 159.41655182 -99.03908932 159.40482478 -102.04907227 159.38818359 C-102.92672745 159.39425629 -103.80438263 159.40032898 -104.70863342 159.40658569 C-115.47746167 159.29695007 -125.44272131 155.25586697 -133.3046875 147.8203125 C-136.89876448 143.91027271 -140.19124139 140.06452411 -142 135 C-141.67 134.01 -141.34 133.02 -141 132 C-140.67128906 132.556875 -140.34257812 133.11375 -140.00390625 133.6875 C-133.92045297 143.44740337 -126.27328249 150.43855606 -115.04315948 153.57512283 C-111.21337041 154.37153151 -107.37350569 154.29461371 -103.47558594 154.29052734 C-102.54613663 154.29724457 -101.61668732 154.30396179 -100.65907288 154.31088257 C-97.60078514 154.32980635 -94.54271757 154.3337841 -91.484375 154.3359375 C-89.34596671 154.34236989 -87.2075593 154.34909857 -85.06915283 154.35610962 C-80.59051474 154.36806876 -76.1119537 154.3717919 -71.63330078 154.37060547 C-65.91614466 154.37040249 -60.19948679 154.39768922 -54.48244858 154.43214989 C-50.06585455 154.45447345 -45.64937933 154.45844131 -41.23273468 154.45738602 C-39.12616511 154.45973435 -37.01959189 154.4685142 -34.91307831 154.48405075 C-19.48618552 154.78156743 -19.48618552 154.78156743 -5 150 C-4.00484375 149.49339844 -3.0096875 148.98679688 -1.984375 148.46484375 C6.72022976 142.51466812 12.13914497 134.15578881 15 124 C15.40683239 120.72011291 15.42095101 117.4806048 15.40405273 114.1784668 C15.41091599 113.22936432 15.41777924 112.28026184 15.42485046 111.30239868 C15.44305689 108.18451709 15.43928894 105.06714178 15.43359375 101.94921875 C15.43815918 99.76739846 15.44346583 97.5855796 15.44947815 95.40376282 C15.45839772 90.83690541 15.45599999 86.27022297 15.44604492 81.70336914 C15.43456941 75.87299697 15.45475137 70.04323174 15.48396206 64.21293926 C15.50237859 59.70797434 15.5020205 55.20315332 15.49632454 50.69816017 C15.49617193 48.5497331 15.50216634 46.4012959 15.51461601 44.25290489 C15.77157492 25.05399539 15.77157492 25.05399539 6.9375 8.4375 C6.26589844 7.63183594 5.59429687 6.82617188 4.90234375 5.99609375 C2.96780381 3.81991151 2.96780381 3.81991151 0 2 C0 1.34 0 0.68 0 0 Z " fill="#030100" transform="translate(233,95)"/>
<path d="M0 0 C1.44826172 0.02707031 1.44826172 0.02707031 2.92578125 0.0546875 C5.28492033 0.10140313 7.64191075 0.16687863 10 0.25 C10.1174875 3.58303003 10.18767324 6.91551837 10.25 10.25 C10.30027344 11.65185547 10.30027344 11.65185547 10.3515625 13.08203125 C10.44829021 19.99806249 9.41416759 25.56975507 4.5871582 30.77294922 C0.00797489 34.83372058 -4.23949763 36.51620471 -10.30078125 36.4453125 C-11.27724609 36.43886719 -12.25371094 36.43242187 -13.25976562 36.42578125 C-14.26716797 36.40902344 -15.27457031 36.39226562 -16.3125 36.375 C-17.33923828 36.36597656 -18.36597656 36.35695312 -19.42382812 36.34765625 C-21.94945899 36.32416201 -24.4746081 36.29131131 -27 36.25 C-27.08149592 33.22861433 -27.14073421 30.20946095 -27.1875 27.1875 C-27.21263672 26.33994141 -27.23777344 25.49238281 -27.26367188 24.61914062 C-27.34663822 17.45637962 -25.91253041 13.03683003 -21.8125 7.0625 C-15.27529557 0.52529557 -8.99137383 -0.32244927 0 0 Z " fill="#E6E6DA" transform="translate(133,106.75)"/>
<path d="M0 0 C4.14746819 3.79197092 7.65378811 7.83833384 10 13 C9.9375 15.9375 9.9375 15.9375 9 18 C6.59454362 19.20272819 5.05003047 19.10071472 2.375 19.0625 C1.14910156 19.04896484 1.14910156 19.04896484 -0.1015625 19.03515625 C-0.72804687 19.02355469 -1.35453125 19.01195312 -2 19 C5.86806853 29.36989677 18.12500288 37.49818987 29.6953125 43.3671875 C32.77249459 45.54729278 33.84061707 47.88427047 35.5 51.25 C38.02103901 56.18726458 40.62934356 60.60793252 44 65 C43.01 66.98 43.01 66.98 42 69 C13.07518303 63.97712759 -11.13400717 43.84995759 -27.66015625 20.5078125 C-29.98126206 17.08693326 -32.14187058 13.69843506 -34 10 C-33.67 9.01 -33.34 8.02 -33 7 C-30.72641093 9.92707575 -28.78904492 12.95341832 -26.875 16.125 C-23.1627545 22.00796533 -18.80666203 26.99229887 -14 32 C-12.7625 33.299375 -12.7625 33.299375 -11.5 34.625 C-10.675 35.40875 -9.85 36.1925 -9 37 C-8.10474609 37.87011719 -8.10474609 37.87011719 -7.19140625 38.7578125 C5.94539705 51.05096788 21.89119591 58.8062559 39 64 C38.67 63.67 38.34 63.34 38 63 C31.263983 53.93024482 31.263983 53.93024482 29.25 48.75 C27.09340603 44.18202459 23.50201751 42.83806777 19.12109375 40.66796875 C10.25841126 35.9315915 2.78035106 29.0332719 -4.3125 22 C-4.88210449 21.43595459 -5.45170898 20.87190918 -6.03857422 20.29077148 C-10 16.25748728 -10 16.25748728 -10 14 C-5.05 13.67 -0.1 13.34 5 13 C3.989375 11.411875 2.97875 9.82375 1.9375 8.1875 C0.21484375 5.48046875 0.21484375 5.48046875 -1 3 C-0.67 2.01 -0.34 1.02 0 0 Z " fill="#0E0603" transform="translate(47,177)"/>
<path d="M0 0 C4.60218973 0.54787973 7.89665255 1.90467364 12 4 C13.17175781 4.2165625 13.17175781 4.2165625 14.3671875 4.4375 C33.74863917 8.57834427 53.60072226 30.33828079 64.24609375 46.12109375 C70.84711966 56.95618528 79.78530066 71.96891711 79 85 C77.26171875 85.75390625 77.26171875 85.75390625 75 86 C72.95703125 84.33984375 72.95703125 84.33984375 70.8125 81.9375 C61.07528642 71.69031779 51.51219684 68.26829291 37.72265625 66.4296875 C35 66 35 66 33 65 C33 64.01 33 63.02 33 62 C45.697699 60.97045684 57.20255982 64.76254059 67 73 C69.48826624 75.55289654 71.79176602 78.20243026 74 81 C69.09420387 60.3440163 58.636225 43.20589842 44 28 C43.42765625 27.35289063 42.8553125 26.70578125 42.265625 26.0390625 C34.60209275 17.62497813 23.57446078 11.00580388 13 7 C8.58382084 5.15306793 4.26222514 3.18309092 0 1 C0 0.67 0 0.34 0 0 Z " fill="#081114" transform="translate(170,11)"/>
<path d="M0 0 C6.69257628 1.18979134 11.43822143 6.87616387 15.25 12.1875 C20.98076481 21.60186073 22.59531628 30.88543477 22.390625 41.765625 C22.38496521 42.92503601 22.37930542 44.08444702 22.37347412 45.2789917 C22.35130853 48.93643715 22.30114885 52.59285697 22.25 56.25 C22.22990943 58.74868364 22.21166318 61.24738284 22.1953125 63.74609375 C22.15150899 69.83107166 22.08479857 75.91546253 22 82 C19.525 82.495 19.525 82.495 17 83 C16.99635437 82.2955777 16.99270874 81.5911554 16.98895264 80.86538696 C16.95089363 74.18710706 16.89384076 67.50928099 16.81609726 60.83133888 C16.77679227 57.39909741 16.74452181 53.96710595 16.72900391 50.53466797 C16.71079162 46.57747309 16.66076626 42.62097063 16.609375 38.6640625 C16.60814636 37.44699615 16.60691772 36.22992981 16.60565186 34.97598267 C16.43176581 24.74272683 13.8630083 17.2890807 8 9 C7.67 8.01 7.34 7.02 7 6 C6.38125 5.690625 5.7625 5.38125 5.125 5.0625 C2.59402625 3.79701313 1.55151442 2.32727163 0 0 Z " fill="#090F15" transform="translate(144,6)"/>
<path d="M0 0 C0.680625 0.70125 1.36125 1.4025 2.0625 2.125 C14.47978497 14.43764493 25.8505293 17.2251137 43.23046875 17.4140625 C44.71770447 17.44052856 44.71770447 17.44052856 46.23498535 17.4675293 C49.88566845 17.52988156 53.53660582 17.57655864 57.1875 17.625 C69.4696875 17.810625 69.4696875 17.810625 82 18 C82 34.83 82 51.66 82 69 C81.67 69 81.34 69 81 69 C81 53.49 81 37.98 81 22 C77.31328125 22.04640625 73.6265625 22.0928125 69.828125 22.140625 C66.22380955 22.17189585 62.6195097 22.19614082 59.01513672 22.21972656 C56.52646018 22.23973667 54.03783002 22.26695343 51.54931641 22.30175781 C47.95463556 22.35074344 44.36058087 22.37307583 40.765625 22.390625 C39.11956268 22.42159271 39.11956268 22.42159271 37.44024658 22.45318604 C24.71230878 22.45681312 14.5113769 18.44055964 5 10 C2.14523825 6.87217408 0 4.39738972 0 0 Z " fill="#0D0703" transform="translate(6,144)"/>
<path d="M0 0 C4.14746819 3.79197092 7.65378811 7.83833384 10 13 C9.9375 15.9375 9.9375 15.9375 9 18 C6.59454362 19.20272819 5.05003047 19.10071472 2.375 19.0625 C1.14910156 19.04896484 1.14910156 19.04896484 -0.1015625 19.03515625 C-0.72804688 19.02355469 -1.35453125 19.01195312 -2 19 C0.97967593 23.0970544 4.4026739 26.16137637 8.29296875 29.3515625 C10 31 10 31 11 34 C2.88847271 30.29340806 -4.18246652 22.61205773 -10 16 C-10 15.34 -10 14.68 -10 14 C-5.05 13.67 -0.1 13.34 5 13 C3.989375 11.411875 2.97875 9.82375 1.9375 8.1875 C0.21484375 5.48046875 0.21484375 5.48046875 -1 3 C-0.67 2.01 -0.34 1.02 0 0 Z " fill="#0E0803" transform="translate(47,177)"/>
<path d="M0 0 C3.4821936 1.44327761 5.23689122 3.19916772 7.5 6.1875 C8.11488281 6.99316406 8.72976562 7.79882812 9.36328125 8.62890625 C11 11 11 11 12.6875 14.625 C15.06549264 19.03839312 19.37304262 20.67163183 23.63671875 22.98828125 C32.90959548 28.53477546 45.55391967 38.03464753 50 48 C49.01 48 48.02 48 47 48 C47 47.34 47 46.68 47 46 C45.68 45.34 44.36 44.68 43 44 C43 43.34 43 42.68 43 42 C42.34 42 41.68 42 41 42 C41 41.34 41 40.68 41 40 C40.43925781 39.75378906 39.87851563 39.50757813 39.30078125 39.25390625 C36.58899175 37.77600399 34.516855 35.96629307 32.1875 33.9375 C27.09470274 29.65100488 21.77377153 26.33122776 15.86401367 23.27124023 C13.9921875 22.23828125 13.9921875 22.23828125 11 20 C10.1953125 16.79296875 10.1953125 16.79296875 10 14 C9.34 13.67 8.68 13.34 8 13 C6.57949314 11.22294021 5.21111679 9.40385091 3.875 7.5625 C3.15054688 6.57378906 2.42609375 5.58507812 1.6796875 4.56640625 C0 2 0 2 0 0 Z " fill="#051119" transform="translate(163,12)"/>
<path d="M0 0 C4.60218973 0.54787973 7.89665255 1.90467364 12 4 C13.17175781 4.2165625 13.17175781 4.2165625 14.3671875 4.4375 C29.88281625 7.75241178 44.32708971 22.97132603 55 34 C54.505 34.99 54.505 34.99 54 36 C49.72635738 33.33285003 46.50310932 30.60368562 43.0625 26.875 C34.68968369 18.16744799 24.30451601 11.28236248 13 7 C8.58382084 5.15306793 4.26222514 3.18309092 0 1 C0 0.67 0 0.34 0 0 Z " fill="#0C2836" transform="translate(170,11)"/>
<path d="M0 0 C12.75433576 -1.03413533 24.10130422 2.80714743 34 11 C34.495 11.99 34.495 11.99 35 13 C31.98443557 12.32682161 29.27852327 11.3325519 26.4375 10.125 C17.8922789 6.66173858 9.0469963 4.66810127 0 3 C0 2.01 0 1.02 0 0 Z " fill="#050B0D" transform="translate(203,73)"/>
<path d="M0 0 C9.24 0 18.48 0 28 0 C28 0.33 28 0.66 28 1 C15.625 1.495 15.625 1.495 3 2 C1.89845533 5.30463401 1.84181283 7.82610919 1.79467773 11.30737305 C1.77473251 12.60849533 1.75478729 13.90961761 1.73423767 15.25016785 C1.71725454 16.6706836 1.70037569 18.0912006 1.68359375 19.51171875 C1.66301863 20.96475306 1.64202201 22.41778146 1.62062073 23.87080383 C1.56545766 27.6929953 1.51602302 31.51524026 1.46777344 35.33752441 C1.41751628 39.23873652 1.36185222 43.13987105 1.30664062 47.04101562 C1.19912959 54.69394469 1.09766902 62.34693833 1 70 C0.67 70 0.34 70 0 70 C0 46.9 0 23.8 0 0 Z " fill="#45AEE0" transform="translate(52,46)"/>
<path d="M0 0 C0.67804687 0.43570313 1.35609375 0.87140625 2.0546875 1.3203125 C3.45074219 2.21363281 3.45074219 2.21363281 4.875 3.125 C5.87789062 3.7746875 6.88078125 4.424375 7.9140625 5.09375 C10.88737975 6.9965372 10.88737975 6.9965372 13.7109375 8.34375 C21.48814729 12.26824971 24.81459845 18.09978224 28 26 C28 26.99 28 27.98 28 29 C23.2807841 26.7363761 21.95468219 24.40761639 19.875 19.6875 C16.22900694 12.49146107 12.15643638 10.19779129 5 7 C1.8125 4.8125 1.8125 4.8125 0 3 C0 2.01 0 1.02 0 0 Z " fill="#1E0B06" transform="translate(58,209)"/>
<path d="M0 0 C5.61 0 11.22 0 17 0 C17.05374281 3.79185383 17.09354937 7.58295298 17.125 11.375 C17.14175781 12.45523438 17.15851563 13.53546875 17.17578125 14.6484375 C17.18222656 15.6796875 17.18867188 16.7109375 17.1953125 17.7734375 C17.20578613 18.72653809 17.21625977 19.67963867 17.22705078 20.66162109 C17 23 17 23 15 25 C15.33 17.41 15.66 9.82 16 2 C11.38 2.33 6.76 2.66 2 3 C1.67 7.95 1.34 12.9 1 18 C0.67 18 0.34 18 0 18 C0 12.06 0 6.12 0 0 Z " fill="#075DA3" transform="translate(144,107)"/>
<path d="M0 0 C2.27358907 2.92707575 4.21095508 5.95341832 6.125 9.125 C9.8202789 15.00421246 14.21037793 19.99316151 19 25 C18.34 25.99 17.68 26.98 17 28 C10.21621284 20.28483223 3.47027163 12.32984619 -1 3 C-0.67 2.01 -0.34 1.02 0 0 Z " fill="#36200B" transform="translate(14,184)"/>
<path d="M0 0 C-0.33 0.66 -0.66 1.32 -1 2 C-2.66475686 2.34274406 -4.33195323 2.67364302 -6 3 C-16.11137371 6.62483209 -22.62008072 12.72035087 -28 22 C-29.20705571 24.65381044 -30.1223838 27.21227796 -31 30 C-31.92075222 27.4909502 -32.09121531 26.27934687 -31.25 23.703125 C-25.746264 12.90204311 -18.5320813 4.53178107 -6.8671875 0.4921875 C-4.52806375 -0.12440161 -2.40428963 -0.22540215 0 0 Z " fill="#46B5DF" transform="translate(33,1)"/>
<path d="M0 0 C4.15004215 1.37598915 6.6657062 3.23338119 9.75 6.3125 C10.52859375 7.07175781 11.3071875 7.83101563 12.109375 8.61328125 C14.13317746 11.16812278 14.65985725 12.79698913 15 16 C14.01 16 13.02 16 12 16 C10.09765625 13.69921875 10.09765625 13.69921875 8.0625 10.6875 C5.61336694 7.07750618 3.51212757 4.55356031 0 2 C0 1.34 0 0.68 0 0 Z " fill="#1B0C05" transform="translate(233,95)"/>
<path d="M0 0 C3.997538 0.53603351 5.76846496 2.45467824 8.5 5.3125 C9.2528125 6.09238281 10.005625 6.87226563 10.78125 7.67578125 C11.5134375 8.44277344 12.245625 9.20976562 13 10 C14.32991309 11.33674483 15.66211349 12.67123544 17 14 C11.94672096 14 8.6818996 10.22408021 5 7 C0 1.8045977 0 1.8045977 0 0 Z " fill="#412C0B" transform="translate(5,157)"/>
<path d="M0 0 C5.11723176 3.19826985 9.52692892 6.95834187 14 11 C13.01 12.485 13.01 12.485 12 14 C2.0855615 5.43315508 2.0855615 5.43315508 0 3 C0 2.01 0 1.02 0 0 Z " fill="#271508" transform="translate(32,210)"/>
<path d="M0 0 C6.89811324 2.85020942 11.11659269 10.38512441 14 17 C8.95421952 14.73809841 6.45871164 11.41606961 3.3125 6.9375 C2.68988281 6.05964844 2.06726563 5.18179687 1.42578125 4.27734375 C0 2 0 2 0 0 Z " fill="#0F5A8C" transform="translate(163,12)"/>
<path d="M0 0 C0.71285156 0.45890625 1.42570312 0.9178125 2.16015625 1.390625 C7.37254796 4.72992305 12.58843574 7.99357541 18 11 C17.34 11.66 16.68 12.32 16 13 C3.35793358 6.35793358 3.35793358 6.35793358 0 3 C0 2.01 0 1.02 0 0 Z " fill="#49210D" transform="translate(58,209)"/>
<path d="M0 0 C4.93010287 0.14939706 7.19384443 2.78572568 10.44921875 6.11328125 C11.9938267 7.99248941 13.00829488 9.78698316 14 12 C13.01 12 12.02 12 11 12 C11 11.34 11 10.68 11 10 C9.68 9.34 8.36 8.68 7 8 C7 7.34 7 6.68 7 6 C6.34 6 5.68 6 5 6 C5 5.34 5 4.68 5 4 C4.360625 3.71125 3.72125 3.4225 3.0625 3.125 C1 2 1 2 0 0 Z " fill="#0D232D" transform="translate(199,48)"/>
<path d="M0 0 C4.60218973 0.54787973 7.89665255 1.90467364 12 4 C13.299375 4.2475 13.299375 4.2475 14.625 4.5 C17.38870311 5.08183223 18.87102118 6.18642545 21 8 C18.875 8.75 18.875 8.75 16 9 C13.95912192 7.73012031 11.96374635 6.38617389 10 5 C8.5991282 4.41870367 7.18117661 3.87707642 5.75 3.375 C2 2 2 2 0 0 Z " fill="#0F6197" transform="translate(170,11)"/>
<path d="M0 0 C9.24 0 18.48 0 28 0 C26.68 1.32 25.36 2.64 24 4 C24 3.01 24 2.02 24 1 C22.90945312 1.12568359 22.90945312 1.12568359 21.796875 1.25390625 C14.37725096 2.00538099 7.40344288 1.85323367 0 1 C0 0.67 0 0.34 0 0 Z " fill="#1B77B4" transform="translate(74,98)"/>
<path d="M0 0 C3.28465896 2.79196011 5.01321958 6.23196817 7 10 C7 10.66 7 11.32 7 12 C9.31 12 11.62 12 14 12 C14 12.33 14 12.66 14 13 C11.36 13.33 8.72 13.66 6 14 C4.9923048 12.2335343 3.99408286 10.46166177 3 8.6875 C2.443125 7.70136719 1.88625 6.71523437 1.3125 5.69921875 C0 3 0 3 0 0 Z " fill="#25607A" transform="translate(196,60)"/>
<path d="M0 0 C4.48525648 0.656379 8.66914029 1.70074209 13 3 C13 2.01 13 1.02 13 0 C14.65 1.65 16.3 3.3 18 5 C17.67 5.66 17.34 6.32 17 7 C8.585 4.03 8.585 4.03 0 1 C0 0.67 0 0.34 0 0 Z " fill="#C53A23" transform="translate(69,235)"/>
<path d="M0 0 C2.91922205 2.62729984 4.87821836 5.71466069 7 9 C7.99 10.485 7.99 10.485 9 12 C8.34 12.66 7.68 13.32 7 14 C5.82188197 12.42516875 4.65787174 10.83977627 3.5 9.25 C2.8503125 8.36828125 2.200625 7.4865625 1.53125 6.578125 C0 4 0 4 0 0 Z " fill="#54260F" transform="translate(91,227)"/>
<path d="M0 0 C3.81936528 1.55603771 6.26044438 3.95604931 9 7 C9 7.66 9 8.32 9 9 C5.05860922 7.33248852 2.2107188 4.77289351 -1 2 C-0.67 1.34 -0.34 0.68 0 0 Z " fill="#351B0A" transform="translate(49,202)"/>
<path d="M0 0 C2.9719385 1.12451727 5.33440687 2.22293791 8 4 C8.6875 6.125 8.6875 6.125 9 8 C5.56801397 6.76067171 2.69674368 5.49698489 0 3 C0 2.01 0 1.02 0 0 Z " fill="#180C05" transform="translate(45,222)"/>
<path d="M0 0 C7.26 0 14.52 0 22 0 C21.67 0.66 21.34 1.32 21 2 C20.44014404 1.99476318 19.88028809 1.98952637 19.3034668 1.98413086 C16.76482263 1.96333309 14.22619641 1.95033096 11.6875 1.9375 C10.80642578 1.92912109 9.92535156 1.92074219 9.01757812 1.91210938 C8.17001953 1.90888672 7.32246094 1.90566406 6.44921875 1.90234375 C5.27879028 1.89448853 5.27879028 1.89448853 4.0847168 1.88647461 C1.8038445 1.91862137 1.8038445 1.91862137 -1 3 C-0.67 2.01 -0.34 1.02 0 0 Z " fill="#F38333" transform="translate(184,139)"/>
<path d="M0 0 C3.28788824 3.11016455 5.83735988 6.01618925 8 10 C7.01 10 6.02 10 5 10 C3.61328125 8.57421875 3.61328125 8.57421875 2.3125 6.6875 C1.87550781 6.07261719 1.43851562 5.45773438 0.98828125 4.82421875 C0 3 0 3 0 0 Z " fill="#091C29" transform="translate(6,144)"/>
<path d="M0 0 C5.41342681 1.14514798 7.9342948 2.34012809 11 7 C10.01 7.33 9.02 7.66 8 8 C5.95703125 6.6015625 5.95703125 6.6015625 3.8125 4.625 C3.09707031 3.97789063 2.38164062 3.33078125 1.64453125 2.6640625 C0 1 0 1 0 0 Z " fill="#11262F" transform="translate(232,84)"/>
<path d="M0 0 C0.66 0.33 1.32 0.66 2 1 C2.6328125 3.06640625 2.6328125 3.06640625 3.125 5.5625 C3.29257813 6.38878906 3.46015625 7.21507813 3.6328125 8.06640625 C3.75398437 8.70449219 3.87515625 9.34257813 4 10 C1.06799526 7.14723863 -1.64315404 4.34920216 -4 1 C-3.01 1.33 -2.02 1.66 -1 2 C-0.67 1.34 -0.34 0.68 0 0 Z " fill="#46B8E2" transform="translate(241,83)"/>
<path d="M0 0 C4.99911924 0.47610659 7.97832683 2.03162219 12 5 C11.01 5.66 10.02 6.32 9 7 C7.4972763 6.02501855 5.99788037 5.04490611 4.5 4.0625 C3.6646875 3.51722656 2.829375 2.97195312 1.96875 2.41015625 C1.3190625 1.94480469 0.669375 1.47945312 0 1 C0 0.67 0 0.34 0 0 Z " fill="#0E3752" transform="translate(189,19)"/>
<path d="M0 0 C4.41889613 1.35021826 6.34345343 3.26115668 9 7 C8.34 7.66 7.68 8.32 7 9 C6.401875 8.21625 5.80375 7.4325 5.1875 6.625 C3.08914751 3.85425677 3.08914751 3.85425677 0 2 C0 1.34 0 0.68 0 0 Z " fill="#311608" transform="translate(233,95)"/>
<path d="M0 0 C2.52349243 3.12432397 4.27256146 6.38060496 6 10 C5.01 10 4.02 10 3 10 C-0.22265625 4.82421875 -0.22265625 4.82421875 -1 3 C-0.67 2.01 -0.34 1.02 0 0 Z " fill="#724D11" transform="translate(14,184)"/>
<path d="M0 0 C2.64752004 2.57784846 4.94432065 4.91648098 7 8 C6.34 8.66 5.68 9.32 5 10 C4.15801693 8.90241493 3.32669329 7.79664683 2.5 6.6875 C2.0359375 6.07261719 1.571875 5.45773438 1.09375 4.82421875 C0 3 0 3 0 0 Z " fill="#3F2B0B" transform="translate(19,194)"/>
<path d="M0 0 C3.35620271 1.38877354 5.07298728 2.91677965 7 6 C7 6.66 7 7.32 7 8 C3.64379729 6.61122646 1.92701272 5.08322035 0 2 C0 1.34 0 0.68 0 0 Z " fill="#091F32" transform="translate(163,12)"/>
<path d="M0 0 C4.455 0.99 4.455 0.99 9 2 C7.68 3.32 6.36 4.64 5 6 C3.35 4.02 1.7 2.04 0 0 Z " fill="#1A5C96" transform="translate(161,8)"/>
<path d="M0 0 C0.66 0 1.32 0 2 0 C3.78305524 2.63892176 4.99059621 4.97178863 6 8 C2.63279613 6.60667426 1.0140476 5.0210714 -1 2 C-0.67 1.34 -0.34 0.68 0 0 Z " fill="#1F1004" transform="translate(43,195)"/>
<path d="M0 0 C4.56454251 0.54339792 7.9728176 1.79463821 12 4 C10 5 10 5 8.125 4.51171875 C7.073125 4.10373047 7.073125 4.10373047 6 3.6875 C5.29875 3.42324219 4.5975 3.15898437 3.875 2.88671875 C2 2 2 2 0 0 Z " fill="#0F578C" transform="translate(170,11)"/>
<path d="M0 0 C3.45925163 1.2491742 6.14693203 2.67527795 9 5 C8.01 5.495 8.01 5.495 7 6 C5.0546875 5.22265625 5.0546875 5.22265625 2.875 4.0625 C2.15054688 3.68222656 1.42609375 3.30195313 0.6796875 2.91015625 C0.12539062 2.60980469 -0.42890625 2.30945313 -1 2 C-0.67 1.34 -0.34 0.68 0 0 Z " fill="#7E3216" transform="translate(67,216)"/>
<path d="M0 0 C2.64 1.98 5.28 3.96 8 6 C6.68 6.33 5.36 6.66 4 7 C0 2.25 0 2.25 0 0 Z " fill="#050C10" transform="translate(194,41)"/>
<path d="M0 0 C2.475 0.495 2.475 0.495 5 1 C5.66 2.98 6.32 4.96 7 7 C5.83040013 6.02433888 4.66438823 5.044375 3.5 4.0625 C2.8503125 3.51722656 2.200625 2.97195312 1.53125 2.41015625 C1.0259375 1.94480469 0.520625 1.47945312 0 1 C0 0.67 0 0.34 0 0 Z " fill="#081C26" transform="translate(208,32)"/>
<path d="M0 0 C2.375 0.6875 2.375 0.6875 5 2 C6.3125 4.625 6.3125 4.625 7 7 C3.17053157 5.54744301 1.87949705 3.57104439 0 0 Z " fill="#040E14" transform="translate(12,152)"/>
<path d="M0 0 C2.99324263 1.0975223 3.84610901 1.67682892 5.25 4.625 C5.4975 5.40875 5.745 6.1925 6 7 C3.53199953 5.84826645 1.95216435 4.95216435 0 3 C0 2.01 0 1.02 0 0 Z " fill="#2A1308" transform="translate(99,239)"/>
<path d="" fill="#0B69A6" transform="translate(0,0)"/>
</svg>
